<?xml version="1.0" encoding="UTF-8" standalone="no"?>
<!DOCTYPE svg PUBLIC "-//W3C//DTD SVG 1.1//EN" "http://www.w3.org/Graphics/SVG/1.1/DTD/svg11.dtd">
<svg width="100%" height="100%" viewBox="0 0 3300 2200" version="1.1" xmlns="http://www.w3.org/2000/svg" xmlns:xlink="http://www.w3.org/1999/xlink" xml:space="preserve" xmlns:serif="http://www.serif.com/" style="fill-rule:evenodd;clip-rule:evenodd;">
    <g id="Notes">
        <rect id="artboard" x="0" y="0" width="3300" height="2200" style="fill:white;"/>
        <path d="M263,292L3036,292" style="fill:none;fill-rule:nonzero;stroke:black;stroke-width:0.5px;"/>
        <g transform="matrix(1,0,0,1,263,322)">
            <text x="0px" y="0px" style="font-family:'LucidaGrande-Bold', 'Lucida Grande', sans-serif;font-weight:600;font-size:13px;">Weight/Scale Variations</text>
        </g>
        <g transform="matrix(1,0,0,1,559.711,322)">
            <text x="-29.339px" y="0px" style="font-family:'LucidaGrande', 'Lucida Grande', sans-serif;font-weight:500;font-size:13px;">Ultralight</text>
        </g>
        <g transform="matrix(1,0,0,1,856.422,322)">
            <text x="-14.057px" y="0px" style="font-family:'LucidaGrande', 'Lucida Grande', sans-serif;font-weight:500;font-size:13px;">Thin</text>
        </g>
        <g transform="matrix(1,0,0,1,1153.13,322)">
            <text x="-15.863px" y="0px" style="font-family:'LucidaGrande', 'Lucida Grande', sans-serif;font-weight:500;font-size:13px;">Light</text>
        </g>
        <g transform="matrix(1,0,0,1,1449.84,322)">
            <text x="-23.947px" y="0px" style="font-family:'LucidaGrande', 'Lucida Grande', sans-serif;font-weight:500;font-size:13px;">Regular</text>
        </g>
        <g transform="matrix(1,0,0,1,1746.56,322)">
            <text x="-25.292px" y="0px" style="font-family:'LucidaGrande', 'Lucida Grande', sans-serif;font-weight:500;font-size:13px;">Medium</text>
        </g>
        <g transform="matrix(1,0,0,1,2043.27,322)">
            <text x="-29.123px" y="0px" style="font-family:'LucidaGrande', 'Lucida Grande', sans-serif;font-weight:500;font-size:13px;">Semibold</text>
        </g>
        <g transform="matrix(1,0,0,1,2339.98,322)">
            <text x="-13.701px" y="0px" style="font-family:'LucidaGrande', 'Lucida Grande', sans-serif;font-weight:500;font-size:13px;">Bold</text>
        </g>
        <g transform="matrix(1,0,0,1,2636.69,322)">
            <text x="-18.748px" y="0px" style="font-family:'LucidaGrande', 'Lucida Grande', sans-serif;font-weight:500;font-size:13px;">Heavy</text>
        </g>
        <g transform="matrix(1,0,0,1,2933.4,322)">
            <text x="-16.336px" y="0px" style="font-family:'LucidaGrande', 'Lucida Grande', sans-serif;font-weight:500;font-size:13px;">Black</text>
        </g>
        <path d="M263,1903L3036,1903" style="fill:none;fill-rule:nonzero;stroke:black;stroke-width:0.5px;"/>
        <g transform="matrix(0.2,0,0,0.2,263,1933)">
            <path d="M46.24,4.15C67.773,4.15 85.693,-13.721 85.693,-35.254C85.693,-56.787 67.724,-74.658 46.191,-74.658C24.707,-74.658 6.836,-56.787 6.836,-35.254C6.836,-13.721 24.756,4.15 46.24,4.15L46.24,4.15ZM46.24,-3.271C28.516,-3.271 14.355,-17.48 14.355,-35.254C14.355,-53.027 28.467,-67.236 46.191,-67.236C63.965,-67.236 78.223,-53.027 78.223,-35.254C78.223,-17.48 64.013,-3.271 46.24,-3.271L46.24,-3.271ZM28.271,-35.254C28.271,-33.105 29.785,-31.641 32.031,-31.641L42.529,-31.641L42.529,-21.045C42.529,-18.848 43.994,-17.334 46.142,-17.334C48.389,-17.334 49.853,-18.848 49.853,-21.045L49.853,-31.641L60.449,-31.641C62.646,-31.641 64.16,-33.105 64.16,-35.254C64.16,-37.451 62.646,-38.965 60.449,-38.965L49.853,-38.965L49.853,-49.512C49.853,-51.758 48.389,-53.272 46.142,-53.272C43.994,-53.272 42.529,-51.758 42.529,-49.512L42.529,-38.965L32.031,-38.965C29.785,-38.965 28.271,-37.451 28.271,-35.254Z" style="fill-rule:nonzero;"/>
        </g>
        <g transform="matrix(0.2,0,0,0.2,281.506,1933)">
            <path d="M58.545,14.551C85.791,14.551 108.35,-8.057 108.35,-35.254C108.35,-62.5 85.742,-85.059 58.496,-85.059C31.299,-85.059 8.74,-62.5 8.74,-35.254C8.74,-8.057 31.348,14.551 58.545,14.551ZM58.545,6.25C35.498,6.25 17.09,-12.207 17.09,-35.254C17.09,-58.301 35.449,-76.758 58.496,-76.758C81.543,-76.758 100.049,-58.301 100.049,-35.254C100.049,-12.207 81.592,6.25 58.545,6.25L58.545,6.25ZM35.889,-35.254C35.889,-32.861 37.549,-31.25 40.039,-31.25L54.395,-31.25L54.395,-16.846C54.395,-14.404 56.055,-12.695 58.447,-12.695C60.889,-12.695 62.598,-14.355 62.598,-16.846L62.598,-31.25L77.002,-31.25C79.443,-31.25 81.152,-32.861 81.152,-35.254C81.152,-37.695 79.443,-39.404 77.002,-39.404L62.598,-39.404L62.598,-53.76C62.598,-56.25 60.889,-57.959 58.447,-57.959C56.055,-57.959 54.395,-56.25 54.395,-53.76L54.395,-39.404L40.039,-39.404C37.549,-39.404 35.889,-37.695 35.889,-35.254Z" style="fill-rule:nonzero;"/>
        </g>
        <g transform="matrix(0.2,0,0,0.2,304.924,1933)">
            <path d="M74.854,28.32C109.668,28.32 138.476,-0.488 138.476,-35.254C138.476,-70.068 109.619,-98.877 74.805,-98.877C40.039,-98.877 11.279,-70.068 11.279,-35.254C11.279,-0.488 40.088,28.32 74.853,28.32L74.854,28.32ZM74.854,19.238C44.678,19.238 20.41,-5.078 20.41,-35.254C20.41,-65.479 44.629,-89.746 74.805,-89.746C105.029,-89.746 129.346,-65.479 129.346,-35.254C129.346,-5.078 105.078,19.238 74.853,19.238L74.854,19.238ZM45.996,-35.254C45.996,-32.666 47.852,-30.859 50.586,-30.859L70.313,-30.859L70.313,-11.084C70.313,-8.398 72.168,-6.494 74.756,-6.494C77.441,-6.494 79.297,-8.35 79.297,-11.084L79.297,-30.859L99.072,-30.859C101.758,-30.859 103.662,-32.666 103.662,-35.254C103.662,-37.988 101.807,-39.844 99.072,-39.844L79.297,-39.844L79.297,-59.57C79.297,-62.305 77.441,-64.209 74.756,-64.209C72.168,-64.209 70.313,-62.305 70.313,-59.57L70.313,-39.844L50.586,-39.844C47.852,-39.844 45.996,-37.988 45.996,-35.254Z" style="fill-rule:nonzero;"/>
        </g>
        <g transform="matrix(1,0,0,1,263,1953)">
            <text x="0px" y="0px" style="font-family:'LucidaGrande-Bold', 'Lucida Grande', sans-serif;font-weight:600;font-size:13px;">Design Variations</text>
        </g>
        <g transform="matrix(1,0,0,1,263,1971)">
            <text x="0px" y="0px" style="font-family:'LucidaGrande', 'Lucida Grande', sans-serif;font-weight:500;font-size:13px;">Symbols are supported in up to nine weights and three scales.</text>
        </g>
        <g transform="matrix(1,0,0,1,263,1989)">
            <text x="0px" y="0px" style="font-family:'LucidaGrande', 'Lucida Grande', sans-serif;font-weight:500;font-size:13px;">For optimal layout with text and other symbols, vertically align</text>
        </g>
        <g transform="matrix(1,0,0,1,263,2007)">
            <text x="0px" y="0px" style="font-family:'LucidaGrande', 'Lucida Grande', sans-serif;font-weight:500;font-size:13px;">symbols with the adjacent text.</text>
        </g>
        <path d="M776,1919L776,1933" style="fill:none;fill-rule:nonzero;stroke:rgb(0,174,239);stroke-width:0.5px;"/>
        <g transform="matrix(0.2,0,0,0.2,776,1933)">
            <path d="M16.553,0.781C19.141,0.781 20.41,-0.195 21.338,-2.93L27.637,-20.166L56.445,-20.166L62.744,-2.93C63.672,-0.195 64.941,0.781 67.48,0.781C70.068,0.781 71.729,-0.781 71.729,-3.223C71.729,-4.053 71.582,-4.834 71.191,-5.859L48.291,-66.846C47.168,-69.824 45.166,-71.338 42.041,-71.338C39.014,-71.338 36.963,-69.873 35.889,-66.895L12.988,-5.811C12.598,-4.785 12.451,-4.004 12.451,-3.174C12.451,-0.732 14.014,0.781 16.553,0.781L16.553,0.781ZM30.029,-27.588L41.895,-60.449L42.139,-60.449L54.004,-27.588L30.029,-27.588Z" style="fill-rule:nonzero;"/>
        </g>
        <path d="M792.836,1919L792.836,1933" style="fill:none;fill-rule:nonzero;stroke:rgb(0,174,239);stroke-width:0.5px;"/>
        <g transform="matrix(1,0,0,1,776,1953)">
            <text x="0px" y="0px" style="font-family:'LucidaGrande-Bold', 'Lucida Grande', sans-serif;font-weight:600;font-size:13px;">Margins</text>
        </g>
        <g transform="matrix(1,0,0,1,776,1971)">
            <text x="0px" y="0px" style="font-family:'LucidaGrande', 'Lucida Grande', sans-serif;font-weight:500;font-size:13px;">Leading and trailing margins on the left and right side of each symbol</text>
        </g>
        <g transform="matrix(1,0,0,1,776,1989)">
            <text x="0px" y="0px" style="font-family:'LucidaGrande', 'Lucida Grande', sans-serif;font-weight:500;font-size:13px;">can be adjusted by modifying the x-location of the margin guidelines.</text>
        </g>
        <g transform="matrix(1,0,0,1,776,2007)">
            <text x="0px" y="0px" style="font-family:'LucidaGrande', 'Lucida Grande', sans-serif;font-weight:500;font-size:13px;">Modiﬁcations are automatically applied proportionally to all</text>
        </g>
        <g transform="matrix(1,0,0,1,776,2025)">
            <text x="0px" y="0px" style="font-family:'LucidaGrande', 'Lucida Grande', sans-serif;font-weight:500;font-size:13px;">scales and weights.</text>
        </g>
        <g transform="matrix(0.2,0,0,0.2,1289,1933)">
            <path d="M14.209,9.326L22.705,17.871C27.002,22.217 31.934,21.924 36.572,16.797L90.039,-42.139L85.205,-47.021L32.129,11.377C30.371,13.379 28.711,13.867 26.367,11.523L20.508,5.713C18.164,3.418 18.701,1.709 20.703,-0.098L78.076,-54.102L73.193,-58.936L15.234,-4.492C10.303,0.098 9.912,4.981 14.209,9.326L14.209,9.326ZM46.289,-81.641C44.189,-79.59 44.043,-76.709 45.215,-74.756C46.387,-72.949 48.682,-71.777 51.904,-72.607C59.229,-74.316 66.846,-74.609 73.975,-69.922L71.045,-62.646C69.336,-58.496 70.215,-55.566 72.9,-52.832L84.375,-41.26C86.816,-38.818 88.867,-38.721 91.699,-39.209L97.022,-40.186L100.342,-36.816L100.146,-34.033C99.951,-31.543 100.586,-29.639 103.027,-27.246L106.836,-23.535C109.229,-21.143 112.305,-20.996 114.648,-23.34L129.199,-37.939C131.543,-40.283 131.445,-43.262 129.053,-45.654L125.195,-49.463C122.803,-51.855 120.947,-52.637 118.555,-52.441L115.674,-52.197L112.451,-55.371L113.672,-60.986C114.307,-63.818 113.525,-66.016 110.596,-68.945L99.609,-79.883C82.91,-96.484 60.742,-96.094 46.289,-81.641L46.289,-81.641ZM53.76,-79.785C65.918,-88.672 82.373,-87.158 93.506,-76.025L105.664,-63.965C106.836,-62.793 107.031,-61.865 106.689,-60.156L105.078,-52.734L112.598,-45.313L117.529,-45.606C118.799,-45.654 119.189,-45.557 120.166,-44.58L123.047,-41.699L110.84,-29.492L107.959,-32.373C106.982,-33.35 106.836,-33.74 106.885,-35.059L107.227,-39.941L99.756,-47.363L92.139,-46.094C90.527,-45.752 89.795,-45.899 88.574,-47.07L78.564,-57.08C77.295,-58.252 77.148,-59.082 77.93,-60.938L82.324,-71.387C74.512,-78.662 64.355,-81.787 54.199,-78.809C53.418,-78.613 53.125,-79.248 53.76,-79.785L53.76,-79.785Z" style="fill-rule:nonzero;"/>
        </g>
        <g transform="matrix(1,0,0,1,1289,1953)">
            <text x="0px" y="0px" style="font-family:'LucidaGrande-Bold', 'Lucida Grande', sans-serif;font-weight:600;font-size:13px;">Exporting</text>
        </g>
        <g transform="matrix(1,0,0,1,1289,1971)">
            <text x="0px" y="0px" style="font-family:'LucidaGrande', 'Lucida Grande', sans-serif;font-weight:500;font-size:13px;">Symbols should be outlined when exporting to ensure the</text>
        </g>
        <g transform="matrix(1,0,0,1,1289,1989)">
            <text x="0px" y="0px" style="font-family:'LucidaGrande', 'Lucida Grande', sans-serif;font-weight:500;font-size:13px;">design is preserved when submitting to Xcode.</text>
        </g>
        <g id="template-version" transform="matrix(1,0,0,1,3036,1933)">
            <text x="-94.333px" y="0px" style="font-family:'LucidaGrande', 'Lucida Grande', sans-serif;font-weight:500;font-size:13px;">Template v.5.0</text>
        </g>
        <g transform="matrix(1,0,0,1,3036,1951)">
            <text x="-184.336px" y="0px" style="font-family:'LucidaGrande', 'Lucida Grande', sans-serif;font-weight:500;font-size:13px;">Requires Xcode 15 or greater</text>
        </g>
        <g id="descriptive-name" transform="matrix(1,0,0,1,3036,1969)">
            <text x="-188.335px" y="0px" style="font-family:'LucidaGrande', 'Lucida Grande', sans-serif;font-weight:500;font-size:13px;">Generated from gearshape.ﬁll</text>
        </g>
        <g transform="matrix(1,0,0,1,3036,1987)">
            <text x="-150.027px" y="0px" style="font-family:'LucidaGrande', 'Lucida Grande', sans-serif;font-weight:500;font-size:13px;">Typeset at 100.0 points</text>
        </g>
        <g transform="matrix(1,0,0,1,263,726)">
            <text x="0px" y="0px" style="font-family:'LucidaGrande', 'Lucida Grande', sans-serif;font-weight:500;font-size:13px;">Small</text>
        </g>
        <g transform="matrix(1,0,0,1,263,1156)">
            <text x="0px" y="0px" style="font-family:'LucidaGrande', 'Lucida Grande', sans-serif;font-weight:500;font-size:13px;">Medium</text>
        </g>
        <g transform="matrix(1,0,0,1,263,1586)">
            <text x="0px" y="0px" style="font-family:'LucidaGrande', 'Lucida Grande', sans-serif;font-weight:500;font-size:13px;">Large</text>
        </g>
    </g>
    <g id="Guides">
        <g id="H-reference" transform="matrix(1,0,0,1,339,696)">
            <path d="M0.994,0L3.638,0L29.328,-67.132L30.03,-67.132L30.03,-70.459L28.123,-70.459L0.994,0ZM11.689,-24.48L46.981,-24.48L46.231,-26.729L12.439,-26.729L11.689,-24.48ZM55.12,0L57.764,0L30.638,-70.459L29.433,-70.459L29.433,-67.132L55.12,0Z" style="fill:rgb(39,170,225);fill-rule:nonzero;"/>
        </g>
        <path id="Baseline-S" d="M263,696L3036,696" style="fill:none;fill-rule:nonzero;stroke:rgb(39,170,225);stroke-width:0.5px;"/>
        <path id="Capline-S" d="M263,625.541L3036,625.541" style="fill:none;fill-rule:nonzero;stroke:rgb(39,170,225);stroke-width:0.5px;"/>
        <g id="H-reference1" serif:id="H-reference" transform="matrix(1,0,0,1,339,1126)">
            <path d="M0.994,0L3.638,0L29.328,-67.132L30.03,-67.132L30.03,-70.459L28.123,-70.459L0.994,0ZM11.689,-24.48L46.981,-24.48L46.231,-26.729L12.439,-26.729L11.689,-24.48ZM55.12,0L57.764,0L30.638,-70.459L29.433,-70.459L29.433,-67.132L55.12,0Z" style="fill:rgb(39,170,225);fill-rule:nonzero;"/>
        </g>
        <path id="Baseline-M" d="M263,1126L3036,1126" style="fill:none;fill-rule:nonzero;stroke:rgb(39,170,225);stroke-width:0.5px;"/>
        <path id="Capline-M" d="M263,1055.54L3036,1055.54" style="fill:none;fill-rule:nonzero;stroke:rgb(39,170,225);stroke-width:0.5px;"/>
        <g id="H-reference2" serif:id="H-reference" transform="matrix(1,0,0,1,339,1556)">
            <path d="M0.994,0L3.638,0L29.328,-67.132L30.03,-67.132L30.03,-70.459L28.123,-70.459L0.994,0ZM11.689,-24.48L46.981,-24.48L46.231,-26.729L12.439,-26.729L11.689,-24.48ZM55.12,0L57.764,0L30.638,-70.459L29.433,-70.459L29.433,-67.132L55.12,0Z" style="fill:rgb(39,170,225);fill-rule:nonzero;"/>
        </g>
        <path id="Baseline-L" d="M263,1556L3036,1556" style="fill:none;fill-rule:nonzero;stroke:rgb(39,170,225);stroke-width:0.5px;"/>
        <path id="Capline-L" d="M263,1485.54L3036,1485.54" style="fill:none;fill-rule:nonzero;stroke:rgb(39,170,225);stroke-width:0.5px;"/>
        <path id="left-margin-Regular-M" d="M1390.13,1030.79L1390.13,1150.12" style="fill:none;fill-rule:nonzero;stroke:rgb(0,174,239);stroke-width:0.5px;"/>
        <path id="right-margin-Regular-M" d="M1509.56,1030.79L1509.56,1150.12" style="fill:none;fill-rule:nonzero;stroke:rgb(0,174,239);stroke-width:0.5px;"/>
    </g>
    <g id="Symbols">
        <g id="Medium-L" transform="matrix(1,0,0,1,1663.63,1555.64)">
            <g transform="matrix(0.728463,0,0,0.728463,-1228.23,-1126.25)">
                <path d="M1778.75,1512.81L1743.38,1512.81L1743.38,1512.81C1739.21,1512.82 1735.79,1516.24 1735.79,1520.37C1735.79,1524.54 1739.2,1527.98 1743.38,1527.99L1743.38,1527.99L1778.76,1527.99C1782.93,1527.99 1786.34,1524.54 1786.34,1520.37C1786.34,1516.24 1782.93,1512.81 1778.76,1512.81L1778.75,1512.81Z" style="fill:none;fill-rule:nonzero;stroke:black;stroke-width:0.5px;"/>
            </g>
            <g transform="matrix(0.721004,0,0,0.721004,-1161.52,-1125.99)">
                <path d="M1776.04,1512.81L1741.33,1512.81L1741.33,1512.81C1737.16,1512.82 1733.75,1516.24 1733.75,1520.37C1733.75,1524.54 1737.15,1527.98 1741.33,1527.99L1741.33,1527.99L1776.05,1527.99C1780.21,1527.99 1783.62,1524.54 1783.62,1520.37C1783.62,1516.24 1780.21,1512.81 1776.05,1512.81L1776.04,1512.81Z" style="fill:none;fill-rule:nonzero;stroke:black;stroke-width:0.5px;"/>
            </g>
            <g transform="matrix(0.723925,0,0,0.723925,-1211.65,-1149.86)">
                <path d="M1778.75,1512.81L1727.87,1512.81L1727.87,1512.81C1723.7,1512.82 1720.29,1516.24 1720.29,1520.37C1720.29,1524.54 1723.69,1527.98 1727.87,1527.99L1727.87,1527.99L1778.76,1527.99C1782.93,1527.99 1786.34,1524.54 1786.34,1520.37C1786.34,1516.24 1782.93,1512.81 1778.76,1512.81L1778.75,1512.81Z" style="fill:none;fill-rule:nonzero;stroke:black;stroke-width:0.5px;"/>
            </g>
            <path d="M71.824,31.186L83.557,31.186C87.254,31.186 89.96,29.014 90.802,25.329L93.925,12.037C96.012,11.304 98.039,10.535 99.9,9.66L111.533,16.874C114.601,18.807 118.115,18.49 120.661,15.954L128.892,7.723C131.461,5.154 131.814,1.537 129.766,-1.614L122.62,-13.143C123.496,-15.017 124.301,-17.01 124.939,-18.942L138.359,-22.113C141.997,-22.908 144.122,-25.613 144.122,-29.358L144.122,-40.894C144.122,-44.533 141.997,-47.239 138.359,-48.044L125.055,-51.252C124.322,-53.421 123.469,-55.378 122.726,-57.109L129.882,-68.823C131.883,-71.982 131.625,-75.448 128.987,-78.054L120.64,-86.296C118.046,-88.684 114.854,-89.106 111.738,-87.321L99.9,-79.98C98.086,-80.866 96.06,-81.624 93.936,-82.368L90.802,-95.823C89.96,-99.509 87.254,-101.681 83.557,-101.681L71.824,-101.681C68.127,-101.681 65.421,-99.509 64.626,-95.813L61.456,-82.473C59.371,-81.74 57.284,-80.972 55.447,-80.038L43.667,-87.321C40.494,-89.106 37.312,-88.742 34.708,-86.285L26.371,-78.054C23.734,-75.448 23.475,-71.982 25.476,-68.823L32.633,-57.109C31.889,-55.378 31.036,-53.421 30.35,-51.252L17.069,-48.044C13.383,-47.239 11.259,-44.533 11.259,-40.894L11.259,-29.358C11.259,-25.613 13.383,-22.908 17.069,-22.113L30.466,-18.942C31.057,-17.01 31.863,-15.017 32.738,-13.143L25.592,-1.614C23.544,1.537 23.897,5.154 26.466,7.723L34.697,15.954C37.244,18.49 40.757,18.807 43.873,16.874L55.505,9.66C57.342,10.535 59.371,11.304 61.456,12.037L64.626,25.329C65.421,29.014 68.127,31.186 71.824,31.186ZM77.739,0.244C58.181,0.244 42.223,-15.865 42.223,-35.365C42.223,-54.684 58.216,-70.718 77.739,-70.718C97.223,-70.718 113.18,-54.684 113.18,-35.365C113.18,-15.865 97.223,0.244 77.739,0.244Z" style="fill:none;fill-rule:nonzero;stroke:black;stroke-width:0.5px;"/>
        </g>
        <g id="Regular-M" transform="matrix(1,0,0,1,1390.13,1126)">
            <path d="M55.228,15.763L64.203,15.763C66.747,15.763 68.606,14.268 69.188,11.743L71.7,1.019C73.609,0.365 75.434,-0.33 77.095,-1.139L86.479,4.655C88.558,5.964 90.977,5.766 92.712,4.032L99.007,-2.263C100.752,-4.009 101.001,-6.521 99.589,-8.672L93.847,-17.984C94.656,-19.655 95.403,-21.47 95.953,-23.193L106.791,-25.757C109.264,-26.287 110.707,-28.145 110.707,-30.742L110.707,-39.551C110.707,-42.044 109.264,-43.903 106.791,-44.433L96.056,-47.049C95.403,-49.03 94.604,-50.794 93.951,-52.309L99.692,-61.776C101.053,-63.917 100.907,-66.284 99.11,-68.082L92.712,-74.376C90.925,-76.008 88.765,-76.309 86.635,-75.103L77.095,-69.206C75.486,-70.015 73.66,-70.71 71.7,-71.364L69.188,-82.243C68.606,-84.768 66.747,-86.263 64.203,-86.263L55.228,-86.263C52.683,-86.263 50.824,-84.768 50.294,-82.243L47.73,-71.467C45.852,-70.814 43.944,-70.119 42.325,-69.258L32.837,-75.103C30.655,-76.309 28.494,-76.06 26.708,-74.376L20.309,-68.082C18.512,-66.284 18.366,-63.917 19.728,-61.776L25.469,-52.309C24.815,-50.794 24.017,-49.03 23.415,-47.049L12.691,-44.433C10.166,-43.903 8.723,-42.044 8.723,-39.551L8.723,-30.742C8.723,-28.145 10.166,-26.287 12.691,-25.757L23.519,-23.193C24.017,-21.47 24.764,-19.655 25.573,-17.984L19.831,-8.672C18.418,-6.521 18.667,-4.009 20.413,-2.263L26.708,4.032C28.443,5.766 30.862,5.964 32.992,4.655L42.377,-1.139C43.996,-0.33 45.852,0.365 47.73,1.019L50.294,11.743C50.824,14.268 52.683,15.763 55.228,15.763ZM59.746,-18C50.223,-18 42.486,-25.841 42.486,-35.312C42.486,-44.711 50.234,-52.5 59.746,-52.5C69.218,-52.5 76.955,-44.711 76.955,-35.312C76.955,-25.841 69.218,-18 59.746,-18Z" style="fill:none;fill-rule:nonzero;stroke:black;stroke-width:0.5px;"/>
        </g>
    </g>
</svg>
